<svg xmlns="http://www.w3.org/2000/svg" xmlns:xlink="http://www.w3.org/1999/xlink" viewBox="0 0 581 525.01"><defs><style>*{fill:white}</style></defs><title>interfresa</title><g id="Capa_2" data-name="Capa 2"><g id="Capa_1-2" data-name="Capa 1"><path class="cls-1" d="M258.28,99.36a51,51,0,0,0-13.67,5.95c-4.69,4.72-10.08,7.9-17,7.7-16.45,8.81-17.83,23.6-3.23,35,5.69,4.44,12.3,7.07,19,9.54,14.89,5.49,28.11,13.54,38.49,25.75,1.05,1.23,3.41,2.62,2.08,4.5s-3.66,1.2-5.51-.07c-14-9.64-30-14.54-46.11-19.29-21.62-6.37-41.81-15.39-56.88-33.14a80.88,80.88,0,0,1-13.65-22.2c-7.93-19.73-3.72-37.52,12-51.94,2-1.82,4.72-3,5.7-5.8,1.47-1.47,3.18-3.44,5.17-1.43s.47,4.44-.78,6.27c-5.68,8.26-8.35,17.28-7.23,27.43,3.18-3.13,6.94-5.09,11.27-2.41,4.83,3,6.19,7.78,5.43,13.15-1,7.4.27,8.81,8,7.84,12.17-1.53,23.36-6.51,35-10,6.61-.9,12.76-3.83,19.46-4.28,3.67.75,8-1.58,11,2.31C266.22,99.65,262.61,100.1,258.28,99.36Z"/><path class="cls-2" d="M266.52,95.29c-3.44-2.53-7.47-.52-11.13-1.42,2.2-5.94,9.23-10,16.83-9.64,8.12-3.16,16.31-6.16,24.33-9.54,6.67-2.82,12.33-7,16.14-14.32-4.89-1.73-9.2-4.15-11.08-9.15a8.25,8.25,0,0,1-.21-6.09c2.54-6,7.48-3.47,12.33-2.56-6.38-15.38-18.57-22.18-34-25.89,23.8-5.87,47.68,7.42,55.93,30.71,9,25.45,5.24,49.82-7.16,73.2-9,17-21.09,32.39-27.42,50.88-2.15,6.27-4.72,12.4-7.43,19.5-3.72-6.42-3.75-12.41-2.95-18.51,1.89-14.39,7.7-27.35,14.74-39.83a62.82,62.82,0,0,0,7.36-18.49c3.35-16.54-7.56-27.73-24.1-24.54-5.57,1.07-11.24,2-16.38,4.66C270.67,96.1,268.88,97.33,266.52,95.29Z"/><path class="cls-3" d="M236.12,98.06c12-21.39,9.57-28.78-10.23-46.11C212.45,40.17,197,36.86,179.43,54.23c2.69-13.1,14.27-21.81,30.09-22.35,8.5-.29,17,.07,25.45-1.6,2.84-2.54,6.58-3.32,9.87-5,5,.3,7.42-3.75,10.38-6.62,8.13-7.88,16.37-15.46,27.93-18C290.64-1,297.45.35,305.3,5.15c-11,.45-20.18,1.34-27.78,7.9-13,11.23-12,26-10.27,40.72,1.17,10.22,4.5,20.11,5,30.47-5.41,3.56-12,5-16.83,9.64C249.11,95.94,242.81,97.88,236.12,98.06Z"/><path class="cls-4" d="M106.68,346.38c-10.2,1.68-10.61-3.89-10.37-11.19.36-10.78.66-21.62-.47-32.41-1.17-11.24-7.68-17.38-18.38-17.32-10.3.06-16.52,6.16-17.82,17-1.48,12.39-.87,24.82-.84,37.23,0,3.88-1.06,5.06-5,5.09-4.2,0-4.89-1.67-4.84-5.32q.27-18.29,0-36.59c-.11-8.89,1.14-17.88-2.5-27.83,4.85,2.58,11.4-3.7,12.71,5.4.13.89,2.37-.54,3.52-1.16,21.64-11.75,40.47-2.21,43.25,22.25C107.66,316.46,106.28,331.43,106.68,346.38Z"/><path class="cls-5" d="M433.89,331.53c4.51-2.16,7.83-2.78,12.67.78,8.25,6.07,18.2,5.55,27.61,1.65a9,9,0,0,0,6-9.22c-.26-4.66-2.79-7.7-7.13-9.15-6.18-2.07-12.71-1.83-19.08-2.6-12.42-1.5-18.14-6.41-19-16.91-.81-9.72,5.75-17.66,16.91-20.23a45.69,45.69,0,0,1,25.17.8c3.57,1.19,6.88,2.75,9,6,1.32,2,4.23,4.66,1.85,6.46-2.12,1.61-5.39,3.58-9,.16-6.5-6.15-20.49-7-28.62-2.67-3.51,1.87-6,4.47-5.68,8.64.39,4.37,3.15,6.84,7.37,8,6.73,1.92,13.73,1,20.53,2.32,12,2.36,17.48,8.92,17.18,21-.16,6.86-3.21,12.13-9.17,15.12-12.8,6.44-25.83,5.48-38.5-.42C438.23,339.58,435.64,336.06,433.89,331.53Z"/><path class="cls-6" d="M310.16,245.42c.66,6.64-2.17,10.38-8,13.09s-6.2,8.61-6.14,14.34c0,2,.75,3,2.8,2.92a47.13,47.13,0,0,1,6.89.07c1.8.23,5.42-1.59,4.46,2.78-.62,2.81,1.19,7-4.8,7-9.34,0-9.34.37-9.34,9.47q0,21.39,0,42.78c0,3.6.94,7.08-5.17,7.05-5.68,0-5.54-2.74-5.5-6.76.13-15.64-.1-31.29.15-46.92.07-4.42-1-6.42-5.71-5.83-2.13.27-5.08.7-4.15-3.22.63-2.67-1.16-7.25,4.42-6.37,5,.79,5.26-1.91,5.47-5.92C286.32,255.19,295.7,246,310.16,245.42Z"/><path class="cls-7" d="M132.81,260.08c1.26,5-2.2,12,1.66,14.93,3.19,2.43,9.69.49,14.48.49,1.17,8.59-2.44,11.34-9.95,10-4.17-.75-6.19.56-6,5.44.4,9.2.12,18.42.12,27.63,0,6,2.09,10.68,7.59,13.67,7,3.8,6.94,3.89,8.51,12-16.17,1-25.53-12.76-25.55-25.38,0-9.21-.21-18.43.08-27.64.14-4.36-.93-6.36-5.68-5.94-1.74.15-5.73,2.05-4.73-3.06.61-3.08-1-7.59,4.95-6.49,4.46.82,5.93-1.37,5.11-5.39C121.85,262.6,125.4,259.6,132.81,260.08Z"/><path class="cls-8" d="M230,276c5,.65,11.22-3.7,12.47,5.55,7-4.62,14.14-7.28,22.26-6,1.62.25,5,.56,3.32,2.63-2.05,2.55.68,8.14-4.69,8-14-.36-20.45,5.12-21.05,19.14-.5,11.46-.58,23-.53,34.42,0,3.84-1.07,5.09-5,5.13-4.12,0-4.93-1.54-4.9-5.24.15-17,0-34,.09-51C232,284.47,231.93,280.38,230,276Z"/><path class="cls-9" d="M318.79,275.49c4.75,1.78,11.77-3.64,12.29,6.47,7-5,14.33-7.82,22.69-6.39,1.55.26,5,.76,3.29,2.48-2.49,2.47,1.18,8.27-4.72,8.13-14-.32-20.4,5-21.17,19.09-.62,11.22-.33,22.51-.26,33.77,0,3.58,0,5.9-4.9,5.83-4.56-.06-5.2-1.73-5.14-5.65.25-16.09.2-32.18.32-48.27C321.22,285.92,321.38,280.89,318.79,275.49Z"/><path class="cls-10" d="M24,246.95c12.39-1.09,12.39-1.09,12.39,10.56,0,27.18,0,54.37.05,81.55,0,3.64-.07,5.87-4.94,5.83-4.67,0-5.11-1.93-5.08-5.74.13-22.35.08-44.69.06-67C26.42,263.65,27.2,255.14,24,246.95Z"/><path class="cls-11" d="M266.52,95.29l5.85-1c1.8,9.58,1.17,19.28.77,28.89a135.94,135.94,0,0,0,5.65,45.51c.47,1.57,2.35,3.94.2,4.92-2.66,1.21-3.23-1.94-4.05-3.58-7.17-14.37-10.32-29.86-12.53-45.62-1.17-8.37-.64-17-4.12-25Z"/><path class="cls-12" d="M227.61,113a92.32,92.32,0,0,1,17-7.7c-3.5,8.08-3.19,14.84,3.8,21.77,6.51,6.45,12.28,14.14,13.43,24.17-8.31-8.08-16.63-15.82-27.06-21.1-4-2-4.58-7.21-5.31-11.56C229.14,116.63,229.85,114.33,227.61,113Z"/><path class="cls-13" d="M244.84,25.29c-1.11,6-5.44,5.58-9.87,5-2.09-2.33-4.88-4-6.08-7.17-1.4-3.69-2-7.41,1.43-10,3.69-2.77,7.35-1,10.46,1.72S245,21.23,244.84,25.29Z"/><path class="cls-14" d="M173.74,314.36c12.66.41,25.34.13,38,.13,9.25,0,9.25,0,8.2-9.19-2-17.78-13-29.37-29.06-30.83-14.25-1.29-27.65,8.65-32,24.22-3.15,11.3-2.26,22.42,3.61,32.74,6,10.62,15.56,15.44,27.63,14.77s20.67-6.52,26.53-18.31c-4.73.77-7.31-1.34-9.65-4.94-1.06,1.61-1.77,2.79-2.58,3.88-4.72,6.33-10.83,10.22-18.91,9-8.62-1.3-13.52-7.15-16.29-15.12C167.73,316.35,168,314.18,173.74,314.36ZM169,300.22c2.75-9.37,11.11-16.45,19.86-16.36,8.24.08,16.09,6.76,18.73,15.78,1,3.53.81,5.56-3.8,5.26-5.26-.35-10.56-.08-15.84-.09-5.05,0-10.11-.16-15.15.05C169.17,305,167.88,304.14,169,300.22Z"/><path class="cls-15" d="M377.06,314.4c12.43.29,24.87.1,37.31.09,10.18,0,10.18,0,9.09-10.23-1.54-14.43-10.61-25.72-23.08-28.74a30.42,30.42,0,0,0-33.13,12.82c-8.83,13.27-8.35,34.25,1.4,46.8,7.13,9.17,16.9,12.48,28.19,10.8,10.62-1.58,18.36-7.26,23.44-18.08-5,1-7.27-1.6-9.79-5-4.69,8.63-11,13.87-20.7,13.06-8.12-.68-14.67-7.25-17.09-15.94C371.58,315.95,372.35,314.29,377.06,314.4ZM373,299.76c2.79-9.42,11.64-16.35,20.2-15.9,9.84.52,16.88,8.17,18.86,20.94-12.23,0-24.39,0-36.54,0C370.95,304.85,372.27,302.13,373,299.76Z"/><path class="cls-16" d="M562.24,275.75c-4.44,1.17-11-3.63-12,5.22-11-6.06-16.27-7.41-23.57-6.07-20.77,3.8-32,24.73-25.63,47.7,4.6,16.57,19.21,26.06,34.93,22.91,5.25-1.05,9.8-3.58,14.95-6.55-1.16,6,2.36,5.69,6,5.8,5.41.17,3.53-3.72,3.63-6.22C561.28,317.75,559.06,296.89,562.24,275.75Zm-31.83,60.36c-10.84.34-19.52-9.87-20.42-24.23a30.82,30.82,0,0,1,4.23-18.48c3.9-6.33,9.58-9.82,17.14-9.52s12.88,4.51,16.15,11.08a28.89,28.89,0,0,1,3.18,14.82C550.64,325,542.19,335.75,530.41,336.11Z"/><path class="cls-17" d="M54.36,443.85l-3.61-9.68h-14l-3.52,9.68H29.81l12.47-32.75h3.06l12.4,32.75Zm-10-27c-.11-.29-.22-.62-.33-1a10,10,0,0,1-.28-1.3h-.09a12.78,12.78,0,0,1-.31,1.3c-.11.38-.23.72-.33,1l-5.3,14.57h12Z"/><path class="cls-17" d="M61.1,439.65a9.2,9.2,0,0,0,1.44.94,12.08,12.08,0,0,0,1.6.71,9.6,9.6,0,0,0,1.66.45,9.19,9.19,0,0,0,1.59.15q5.21,0,5.21-3.9a3.09,3.09,0,0,0-.37-1.54,4,4,0,0,0-1-1.19,9.09,9.09,0,0,0-1.65-1q-1-.46-2.17-1A21.86,21.86,0,0,1,64.57,432a8.44,8.44,0,0,1-1.92-1.5,5.38,5.38,0,0,1-1.12-1.78,6.21,6.21,0,0,1-.37-2.2,5.57,5.57,0,0,1,.67-2.76,6.42,6.42,0,0,1,1.82-2.06,8.4,8.4,0,0,1,2.64-1.29,10.91,10.91,0,0,1,3.14-.45,11.61,11.61,0,0,1,5.3,1.14v3.08a10.29,10.29,0,0,0-5.67-1.69,6.79,6.79,0,0,0-2,.28,4.63,4.63,0,0,0-1.54.78,3.53,3.53,0,0,0-1,1.2,3.34,3.34,0,0,0-.36,1.54,3.92,3.92,0,0,0,.27,1.52,3.35,3.35,0,0,0,.86,1.18,7.42,7.42,0,0,0,1.51,1q.92.48,2.25,1A28.62,28.62,0,0,1,72,432.33a9,9,0,0,1,2,1.46,5.09,5.09,0,0,1,1.19,1.76,6,6,0,0,1,.39,2.25,5.94,5.94,0,0,1-.65,2.82,6.05,6.05,0,0,1-1.8,2.08A8.36,8.36,0,0,1,70.44,444a12.53,12.53,0,0,1-3.38.43,11.21,11.21,0,0,1-6-1.48Z"/><path class="cls-17" d="M91,444.4a11.94,11.94,0,0,1-4.67-.87,9.91,9.91,0,0,1-3.53-2.45,10.86,10.86,0,0,1-2.24-3.8,14.81,14.81,0,0,1-.77-4.92,15.5,15.5,0,0,1,.82-5.23,11,11,0,0,1,2.34-3.92,10,10,0,0,1,3.67-2.45,12.91,12.91,0,0,1,4.8-.85,11.93,11.93,0,0,1,4.57.83,9.34,9.34,0,0,1,3.45,2.41A10.71,10.71,0,0,1,101.6,427a16.24,16.24,0,0,1,.76,5.14,15,15,0,0,1-.79,5A11.28,11.28,0,0,1,99.31,441a9.92,9.92,0,0,1-3.56,2.51A12.05,12.05,0,0,1,91,444.4Zm.23-22a8.83,8.83,0,0,0-3.47.66A7.3,7.3,0,0,0,85.09,425a8.71,8.71,0,0,0-1.7,3.1,13.56,13.56,0,0,0-.59,4.17,12.33,12.33,0,0,0,.59,4,9,9,0,0,0,1.68,3,7.31,7.31,0,0,0,2.64,1.93,9.5,9.5,0,0,0,6.95,0,6.91,6.91,0,0,0,2.56-1.9,8.32,8.32,0,0,0,1.58-3.05,14.38,14.38,0,0,0,.54-4.11q0-4.73-2.1-7.23A7.41,7.41,0,0,0,91.23,422.45Z"/><path class="cls-17" d="M123.8,442.8a12.33,12.33,0,0,1-6.3,1.62,10.85,10.85,0,0,1-4.52-.87,9.93,9.93,0,0,1-3.42-2.48,11,11,0,0,1-2.17-3.75,14.16,14.16,0,0,1-.75-4.7,15,15,0,0,1,.8-4.94,11.82,11.82,0,0,1,2.33-4,11.11,11.11,0,0,1,3.75-2.73,12.22,12.22,0,0,1,5.07-1,12.34,12.34,0,0,1,5.3,1.12v3.11a9.85,9.85,0,0,0-5.53-1.69,8.39,8.39,0,0,0-3.7.79,7.93,7.93,0,0,0-2.73,2.15,9.6,9.6,0,0,0-1.69,3.17,12.56,12.56,0,0,0-.58,3.85,12.94,12.94,0,0,0,.49,3.59,9,9,0,0,0,1.51,3,7.38,7.38,0,0,0,2.57,2.09,8.08,8.08,0,0,0,3.65.77,9.74,9.74,0,0,0,5.94-2Z"/><path class="cls-17" d="M130.86,414.55a2,2,0,0,1-1.46-.6,2,2,0,0,1-.62-1.51,2,2,0,0,1,.62-1.47,2.07,2.07,0,0,1,1.46-.58,2.26,2.26,0,0,1,.82.15,2,2,0,0,1,.67.42,2.11,2.11,0,0,1,.46.65,2,2,0,0,1,.17.83,2.12,2.12,0,0,1-.16.82,1.92,1.92,0,0,1-.46.67,2.12,2.12,0,0,1-1.51.61Zm-1.44,29.3V420.46h2.92v23.39Z"/><path class="cls-17" d="M153.35,443.85v-4.16h-.09a8.59,8.59,0,0,1-3.12,3.47,8.27,8.27,0,0,1-4.47,1.23,9.14,9.14,0,0,1-3-.48,6.53,6.53,0,0,1-2.31-1.36,5.93,5.93,0,0,1-1.46-2.11,7,7,0,0,1-.51-2.72,6.68,6.68,0,0,1,2-5.06,10.56,10.56,0,0,1,5.94-2.45l7.1-1q0-6.74-5.23-6.74a11.44,11.44,0,0,0-7.58,3v-3.2a10,10,0,0,1,1.66-.95,15.24,15.24,0,0,1,2-.73,16,16,0,0,1,2.11-.48,13.44,13.44,0,0,1,2.11-.17,7.58,7.58,0,0,1,5.9,2.19q2,2.19,2,6.53v15.21Zm-6-11.35a18.57,18.57,0,0,0-2.7.57,5.53,5.53,0,0,0-1.85.92,3.44,3.44,0,0,0-1.07,1.44,5.72,5.72,0,0,0-.34,2.12,4.49,4.49,0,0,0,.33,1.73,3.86,3.86,0,0,0,1,1.38,4.23,4.23,0,0,0,1.53.9,6,6,0,0,0,2,.32,6.76,6.76,0,0,0,5.11-2.24,7.63,7.63,0,0,0,1.48-2.51,9.15,9.15,0,0,0,.54-3.17v-2.31Z"/><path class="cls-17" d="M178.87,442.8a12.34,12.34,0,0,1-6.31,1.62,10.85,10.85,0,0,1-4.52-.87,10,10,0,0,1-3.43-2.48,11,11,0,0,1-2.17-3.75,14.15,14.15,0,0,1-.75-4.7,15,15,0,0,1,.8-4.94,11.86,11.86,0,0,1,2.33-4,11.09,11.09,0,0,1,3.75-2.73,12.21,12.21,0,0,1,5.07-1,12.35,12.35,0,0,1,5.3,1.12v3.11a9.85,9.85,0,0,0-5.53-1.69,8.4,8.4,0,0,0-3.7.79,7.93,7.93,0,0,0-2.73,2.15,9.57,9.57,0,0,0-1.69,3.17,12.5,12.5,0,0,0-.58,3.85,13,13,0,0,0,.49,3.59,9,9,0,0,0,1.51,3,7.37,7.37,0,0,0,2.57,2.09,8.08,8.08,0,0,0,3.65.77,9.74,9.74,0,0,0,5.94-2Z"/><path class="cls-17" d="M185.93,414.55a2,2,0,0,1-1.46-.6,2,2,0,0,1-.62-1.51,2,2,0,0,1,.62-1.47,2.07,2.07,0,0,1,1.46-.58,2.27,2.27,0,0,1,.82.15,2.06,2.06,0,0,1,.67.42,2.1,2.1,0,0,1,.46.65,2,2,0,0,1,.17.83,2.14,2.14,0,0,1-.16.82,1.93,1.93,0,0,1-.46.67,2.12,2.12,0,0,1-1.51.61Zm-1.44,29.3V420.46h2.92v23.39Z"/><path class="cls-17" d="M204.52,444.4a11.94,11.94,0,0,1-4.67-.87,9.93,9.93,0,0,1-3.53-2.45,10.87,10.87,0,0,1-2.24-3.8,14.79,14.79,0,0,1-.77-4.92,15.48,15.48,0,0,1,.82-5.23,11,11,0,0,1,2.34-3.92,10,10,0,0,1,3.67-2.45,12.91,12.91,0,0,1,4.8-.85,11.94,11.94,0,0,1,4.57.83,9.33,9.33,0,0,1,3.45,2.41,10.71,10.71,0,0,1,2.17,3.83,16.24,16.24,0,0,1,.75,5.14,15,15,0,0,1-.79,5,11.26,11.26,0,0,1-2.25,3.87,9.92,9.92,0,0,1-3.56,2.51A12.05,12.05,0,0,1,204.52,444.4Zm.23-22a8.85,8.85,0,0,0-3.47.66,7.3,7.3,0,0,0-2.66,1.93,8.73,8.73,0,0,0-1.7,3.1,13.62,13.62,0,0,0-.59,4.17,12.38,12.38,0,0,0,.59,4,9,9,0,0,0,1.68,3,7.29,7.29,0,0,0,2.64,1.93,8.65,8.65,0,0,0,3.47.67,8.75,8.75,0,0,0,3.47-.65,6.91,6.91,0,0,0,2.56-1.9,8.32,8.32,0,0,0,1.58-3.05,14.36,14.36,0,0,0,.54-4.11q0-4.73-2.1-7.23A7.41,7.41,0,0,0,204.75,422.45Zm-.73-6.07h-2.47l5.21-7.5h3.08Z"/><path class="cls-17" d="M237.55,443.85V430.37q0-7.93-5.76-7.93a6.64,6.64,0,0,0-2.83.61,6.75,6.75,0,0,0-2.25,1.68,7.89,7.89,0,0,0-1.49,2.55,9.24,9.24,0,0,0-.54,3.18v13.39h-2.92V420.46h2.92v4.07h.09a8.45,8.45,0,0,1,7.84-4.62,7.07,7.07,0,0,1,5.85,2.49q2,2.49,2,7.19v14.25Z"/><path class="cls-17" d="M263.84,443.85h-3V411.09h3Z"/><path class="cls-17" d="M287.66,443.85V430.37q0-7.93-5.76-7.93a6.65,6.65,0,0,0-2.83.61,6.75,6.75,0,0,0-2.25,1.68,7.9,7.9,0,0,0-1.49,2.55,9.24,9.24,0,0,0-.54,3.18v13.39h-2.92V420.46h2.92v4.07h.09a8.45,8.45,0,0,1,7.84-4.62,7.07,7.07,0,0,1,5.85,2.49q2,2.49,2,7.19v14.25Z"/><path class="cls-17" d="M307.67,443.58a7.3,7.3,0,0,1-3.29.75q-5.66,0-5.66-6.53V423h-4.11v-2.56h4.11v-5.89l2.93-1v6.85h6V423h-6v14.32a5.86,5.86,0,0,0,.77,3.43,3,3,0,0,0,2.62,1,4.74,4.74,0,0,0,2.63-.82Z"/><path class="cls-17" d="M313.52,432.68a13.15,13.15,0,0,0,.57,3.86,8.21,8.21,0,0,0,1.58,2.9,6.75,6.75,0,0,0,2.5,1.82,8.42,8.42,0,0,0,3.32.63,11.87,11.87,0,0,0,7.47-2.76V442a13.63,13.63,0,0,1-8.13,2.4,10.77,10.77,0,0,1-4.27-.82,8.86,8.86,0,0,1-3.27-2.39,10.89,10.89,0,0,1-2.08-3.85,17.17,17.17,0,0,1-.73-5.21,14.35,14.35,0,0,1,.8-4.87,12,12,0,0,1,2.22-3.87,10.19,10.19,0,0,1,3.35-2.56,9.75,9.75,0,0,1,4.25-.93,9.58,9.58,0,0,1,4,.79A7.81,7.81,0,0,1,328,423a10.18,10.18,0,0,1,1.79,3.56,16.63,16.63,0,0,1,.62,4.71v1.46Zm13.89-2.56a8.94,8.94,0,0,0-1.73-5.66,5.7,5.7,0,0,0-4.64-2,7.14,7.14,0,0,0-2.75.53,6.63,6.63,0,0,0-2.22,1.52,8.2,8.2,0,0,0-1.59,2.42,12.17,12.17,0,0,0-.88,3.21Z"/><path class="cls-17" d="M347.76,423.45a4.37,4.37,0,0,0-2.65-.75,4.53,4.53,0,0,0-2.06.45,5.2,5.2,0,0,0-1.56,1.2,7,7,0,0,0-1.14,1.75,12.26,12.26,0,0,0-.76,2.07,15.48,15.48,0,0,0-.41,2.17,18.28,18.28,0,0,0-.12,2.08v11.44h-2.9V420.46h2.9v5h.09a10.51,10.51,0,0,1,1-2.3,7.31,7.31,0,0,1,1.45-1.71,6.16,6.16,0,0,1,1.79-1.06,5.76,5.76,0,0,1,2-.36,8.07,8.07,0,0,1,1.27.09,5.14,5.14,0,0,1,1,.27Z"/><path class="cls-17" d="M354.93,440.08v14.53H352V420.46h2.93v4.47H355a9.29,9.29,0,0,1,3.48-3.73,10.16,10.16,0,0,1,8.93-.48,8.39,8.39,0,0,1,3,2.29,10.4,10.4,0,0,1,1.87,3.61,16.19,16.19,0,0,1,.65,4.77,18.14,18.14,0,0,1-.73,5.29,12.2,12.2,0,0,1-2.11,4.1,9.52,9.52,0,0,1-3.32,2.66,9.94,9.94,0,0,1-4.4.95,8,8,0,0,1-7.38-4.32Zm0-6a8.37,8.37,0,0,0,.53,3,7.82,7.82,0,0,0,1.5,2.47,6.93,6.93,0,0,0,2.32,1.68,7.15,7.15,0,0,0,3,.62,6.7,6.7,0,0,0,3.17-.74,6.93,6.93,0,0,0,2.41-2.12,10.18,10.18,0,0,0,1.53-3.31,16.25,16.25,0,0,0,.53-4.34,12.75,12.75,0,0,0-.5-3.71,8.34,8.34,0,0,0-1.43-2.82,6.2,6.2,0,0,0-2.23-1.78,6.86,6.86,0,0,0-2.94-.62,7.75,7.75,0,0,0-3.28.68,7.33,7.33,0,0,0-2.49,1.84,8.08,8.08,0,0,0-1.58,2.73,10,10,0,0,0-.55,3.32Z"/><path class="cls-17" d="M390.45,423.45a4.39,4.39,0,0,0-2.65-.75,4.52,4.52,0,0,0-2.05.45,5.15,5.15,0,0,0-1.57,1.2,7.17,7.17,0,0,0-1.14,1.75,11.93,11.93,0,0,0-.75,2.07,14.55,14.55,0,0,0-.41,2.17,18.1,18.1,0,0,0-.13,2.08v11.44h-2.9V420.46h2.9v5h.09a10.48,10.48,0,0,1,1-2.3,7.08,7.08,0,0,1,1.45-1.71,6.07,6.07,0,0,1,1.79-1.06,5.73,5.73,0,0,1,2-.36,8.13,8.13,0,0,1,1.27.09,5.31,5.31,0,0,1,1,.27Z"/><path class="cls-17" d="M403.65,444.4a11.92,11.92,0,0,1-4.67-.87,9.87,9.87,0,0,1-3.53-2.45,10.77,10.77,0,0,1-2.24-3.8,14.76,14.76,0,0,1-.78-4.92,15.52,15.52,0,0,1,.82-5.23,11,11,0,0,1,2.34-3.92,10,10,0,0,1,3.67-2.45,12.91,12.91,0,0,1,4.8-.85,11.91,11.91,0,0,1,4.56.83,9.29,9.29,0,0,1,3.45,2.41,10.67,10.67,0,0,1,2.17,3.83,16.28,16.28,0,0,1,.75,5.14,15,15,0,0,1-.79,5A11.25,11.25,0,0,1,412,441a9.94,9.94,0,0,1-3.56,2.51A12.07,12.07,0,0,1,403.65,444.4Zm.23-22a8.84,8.84,0,0,0-3.47.66,7.31,7.31,0,0,0-2.66,1.93,8.72,8.72,0,0,0-1.7,3.1,13.72,13.72,0,0,0-.59,4.17,12.48,12.48,0,0,0,.59,4,9,9,0,0,0,1.68,3,7.3,7.3,0,0,0,2.64,1.93,8.65,8.65,0,0,0,3.47.67,8.75,8.75,0,0,0,3.47-.65,6.89,6.89,0,0,0,2.56-1.9,8.34,8.34,0,0,0,1.59-3.05,14.38,14.38,0,0,0,.54-4.11q0-4.73-2.1-7.23A7.41,7.41,0,0,0,403.88,422.45Z"/><path class="cls-17" d="M430.95,412a4.57,4.57,0,0,0-2.54-.64q-4.11,0-4.11,5.37v3.75h5.82V423H424.3v20.83h-2.93V423h-4.09v-2.56h4.09v-3.93a10.53,10.53,0,0,1,.45-3.19,6.74,6.74,0,0,1,1.31-2.45,5.71,5.71,0,0,1,2.18-1.57,7.82,7.82,0,0,1,3-.55,6.41,6.41,0,0,1,2.61.44Z"/><path class="cls-17" d="M435.22,432.68a13.15,13.15,0,0,0,.57,3.86,8.21,8.21,0,0,0,1.58,2.9,6.77,6.77,0,0,0,2.5,1.82,8.41,8.41,0,0,0,3.32.63,11.87,11.87,0,0,0,7.47-2.76V442a13.61,13.61,0,0,1-8.13,2.4,10.77,10.77,0,0,1-4.27-.82,8.83,8.83,0,0,1-3.27-2.39,10.86,10.86,0,0,1-2.08-3.85,17.11,17.11,0,0,1-.73-5.21,14.37,14.37,0,0,1,.8-4.87,11.94,11.94,0,0,1,2.22-3.87,10.15,10.15,0,0,1,3.36-2.56,9.75,9.75,0,0,1,4.25-.93,9.61,9.61,0,0,1,4,.79,7.86,7.86,0,0,1,2.91,2.25,10.25,10.25,0,0,1,1.79,3.56,16.77,16.77,0,0,1,.62,4.71v1.46Zm13.89-2.56a8.91,8.91,0,0,0-1.73-5.66,5.71,5.71,0,0,0-4.64-2A7.14,7.14,0,0,0,440,423a6.64,6.64,0,0,0-2.23,1.52,8.33,8.33,0,0,0-1.59,2.42,12.05,12.05,0,0,0-.88,3.21Z"/><path class="cls-17" d="M456.53,439.65a9,9,0,0,0,1.44.94,11.83,11.83,0,0,0,1.59.71,9.73,9.73,0,0,0,1.66.45,9.24,9.24,0,0,0,1.59.15q5.21,0,5.21-3.9a3.07,3.07,0,0,0-.37-1.54,3.92,3.92,0,0,0-1-1.19,8.89,8.89,0,0,0-1.64-1c-.64-.3-1.36-.62-2.17-1A21.67,21.67,0,0,1,460,432a8.43,8.43,0,0,1-1.92-1.5,5.32,5.32,0,0,1-1.12-1.78,6.14,6.14,0,0,1-.36-2.2,5.55,5.55,0,0,1,.67-2.76,6.49,6.49,0,0,1,1.81-2.06,8.44,8.44,0,0,1,2.64-1.29,10.92,10.92,0,0,1,3.14-.45,11.63,11.63,0,0,1,5.3,1.14v3.08a10.31,10.31,0,0,0-5.67-1.69,6.77,6.77,0,0,0-2,.28,4.56,4.56,0,0,0-1.54.78,3.51,3.51,0,0,0-1,1.2,3.29,3.29,0,0,0-.35,1.54,3.89,3.89,0,0,0,.27,1.52,3.27,3.27,0,0,0,.86,1.18,7.42,7.42,0,0,0,1.5,1c.62.32,1.37.66,2.25,1a28.71,28.71,0,0,1,2.93,1.36,9.16,9.16,0,0,1,2,1.46,5.06,5.06,0,0,1,1.19,1.76,6.52,6.52,0,0,1-.26,5.06,6.1,6.1,0,0,1-1.81,2.08,8.35,8.35,0,0,1-2.71,1.28,12.51,12.51,0,0,1-3.38.43,11.22,11.22,0,0,1-6-1.48Z"/><path class="cls-17" d="M478.29,414.55a2,2,0,0,1-1.46-.6,2,2,0,0,1-.61-1.51,1.94,1.94,0,0,1,.61-1.47,2.07,2.07,0,0,1,1.46-.58,2.24,2.24,0,0,1,.82.15,2,2,0,0,1,.67.42,2.12,2.12,0,0,1,.46.65,1.94,1.94,0,0,1,.17.83,2.14,2.14,0,0,1-.16.82,2,2,0,0,1-.46.67,2.22,2.22,0,0,1-.68.45A2.16,2.16,0,0,1,478.29,414.55Zm-1.44,29.3V420.46h2.92v23.39Z"/><path class="cls-17" d="M496.89,444.4a12,12,0,0,1-4.67-.87,10,10,0,0,1-3.53-2.45,10.89,10.89,0,0,1-2.24-3.8,14.83,14.83,0,0,1-.78-4.92,15.37,15.37,0,0,1,.83-5.23,11,11,0,0,1,2.34-3.92,10,10,0,0,1,3.66-2.45,12.93,12.93,0,0,1,4.8-.85,11.93,11.93,0,0,1,4.57.83,9.38,9.38,0,0,1,3.45,2.41,10.71,10.71,0,0,1,2.16,3.83,16.22,16.22,0,0,1,.75,5.14,15,15,0,0,1-.79,5A11.31,11.31,0,0,1,505.2,441a10,10,0,0,1-3.56,2.51A12,12,0,0,1,496.89,444.4Zm.22-22a8.8,8.8,0,0,0-3.47.66A7.33,7.33,0,0,0,491,425a8.77,8.77,0,0,0-1.7,3.1,13.48,13.48,0,0,0-.6,4.17,12.26,12.26,0,0,0,.6,4,9,9,0,0,0,1.68,3,7.34,7.34,0,0,0,2.64,1.93,9.5,9.5,0,0,0,6.95,0,6.91,6.91,0,0,0,2.56-1.9,8.37,8.37,0,0,0,1.58-3.05,14.35,14.35,0,0,0,.54-4.11q0-4.73-2.1-7.23A7.41,7.41,0,0,0,497.12,422.45Z"/><path class="cls-17" d="M529.92,443.85V430.37q0-7.93-5.75-7.93a6.66,6.66,0,0,0-2.84.61,6.76,6.76,0,0,0-2.25,1.68,7.86,7.86,0,0,0-1.48,2.55,9.2,9.2,0,0,0-.53,3.18v13.39h-2.93V420.46h2.93v4.07h.09a8.44,8.44,0,0,1,7.83-4.62,7.06,7.06,0,0,1,5.85,2.49q2,2.49,2,7.19v14.25Z"/><path class="cls-17" d="M553.35,443.85v-4.16h-.09a8.58,8.58,0,0,1-3.12,3.47,8.28,8.28,0,0,1-4.46,1.23,9.12,9.12,0,0,1-3.05-.48,6.52,6.52,0,0,1-2.3-1.36,5.92,5.92,0,0,1-1.46-2.11,7,7,0,0,1-.51-2.72,6.69,6.69,0,0,1,2-5.06,10.57,10.57,0,0,1,5.94-2.45l7.1-1q0-6.74-5.23-6.74a11.43,11.43,0,0,0-7.59,3v-3.2a10.13,10.13,0,0,1,1.65-.95,15.71,15.71,0,0,1,2-.73,16,16,0,0,1,2.11-.48,13.44,13.44,0,0,1,2.11-.17,7.57,7.57,0,0,1,5.9,2.19q2,2.19,2,6.53v15.21Zm-6-11.35a18.72,18.72,0,0,0-2.7.57,5.53,5.53,0,0,0-1.85.92,3.49,3.49,0,0,0-1.07,1.44,5.71,5.71,0,0,0-.34,2.12,4.46,4.46,0,0,0,.33,1.73,3.85,3.85,0,0,0,1,1.38,4.28,4.28,0,0,0,1.53.9,6.06,6.06,0,0,0,2,.32,6.75,6.75,0,0,0,5.1-2.24,7.66,7.66,0,0,0,1.49-2.51,9.15,9.15,0,0,0,.53-3.17v-2.31Z"/><path class="cls-17" d="M563.31,443.85V409.23h2.93v34.62Z"/><path class="cls-17" d="M119,500v-4.11h-.09a8.29,8.29,0,0,1-3.32,3.44,9.75,9.75,0,0,1-4.9,1.22,9.56,9.56,0,0,1-4-.81,8.58,8.58,0,0,1-3.07-2.34,10.88,10.88,0,0,1-2-3.7,16,16,0,0,1-.7-4.91,16.6,16.6,0,0,1,.77-5.17,12,12,0,0,1,2.17-4,9.75,9.75,0,0,1,3.38-2.61,10.26,10.26,0,0,1,4.4-.92q5.05,0,7.24,4H119V465.36h2.92V500Zm0-14.11a7.68,7.68,0,0,0-.52-2.86,7.07,7.07,0,0,0-1.46-2.31,6.86,6.86,0,0,0-2.25-1.56,7.22,7.22,0,0,0-2.89-.57,7.45,7.45,0,0,0-3.2.68,7,7,0,0,0-2.5,2,9.49,9.49,0,0,0-1.62,3.14,15.38,15.38,0,0,0-.06,8.18,8.62,8.62,0,0,0,1.5,3,6.52,6.52,0,0,0,2.32,1.85,6.94,6.94,0,0,0,3,.64,7.83,7.83,0,0,0,3.21-.64,7,7,0,0,0,2.42-1.76,7.9,7.9,0,0,0,1.53-2.62,9.5,9.5,0,0,0,.54-3.22Z"/><path class="cls-17" d="M130.82,488.81a13,13,0,0,0,.57,3.86,8.18,8.18,0,0,0,1.58,2.9,6.71,6.71,0,0,0,2.5,1.81,8.38,8.38,0,0,0,3.32.63,11.89,11.89,0,0,0,7.47-2.76v2.88a13.61,13.61,0,0,1-8.13,2.4,10.73,10.73,0,0,1-4.27-.82,8.82,8.82,0,0,1-3.27-2.39,10.89,10.89,0,0,1-2.08-3.85,17.05,17.05,0,0,1-.73-5.21,14.36,14.36,0,0,1,.8-4.86,11.94,11.94,0,0,1,2.22-3.87,10.24,10.24,0,0,1,3.36-2.56,9.77,9.77,0,0,1,4.25-.92,9.59,9.59,0,0,1,4,.79,7.86,7.86,0,0,1,2.91,2.25,10.16,10.16,0,0,1,1.79,3.56,16.64,16.64,0,0,1,.62,4.71v1.46Zm13.89-2.56a8.91,8.91,0,0,0-1.74-5.66,5.7,5.7,0,0,0-4.64-2,7,7,0,0,0-2.75.53,6.53,6.53,0,0,0-2.23,1.52,8.24,8.24,0,0,0-1.59,2.42,12.1,12.1,0,0,0-.88,3.21Z"/><path class="cls-17" d="M166.27,500V465.36h2.92V500Z"/><path class="cls-17" d="M190.21,500v-4.16h-.09A8.59,8.59,0,0,1,187,499.3a8.24,8.24,0,0,1-4.46,1.23,9.14,9.14,0,0,1-3-.48,6.5,6.5,0,0,1-2.31-1.36,6,6,0,0,1-1.46-2.11,7,7,0,0,1-.51-2.72,6.68,6.68,0,0,1,2-5.06,10.56,10.56,0,0,1,5.94-2.46l7.1-1q0-6.75-5.23-6.74a11.43,11.43,0,0,0-7.58,3v-3.2a9.23,9.23,0,0,1,1.66-.95,15.86,15.86,0,0,1,2-.73,15.66,15.66,0,0,1,2.11-.48,13.32,13.32,0,0,1,2.11-.17,7.59,7.59,0,0,1,5.91,2.19q2,2.19,2,6.53V500Zm-6-11.35a18.17,18.17,0,0,0-2.7.57,5.53,5.53,0,0,0-1.85.92,3.46,3.46,0,0,0-1.07,1.44,5.69,5.69,0,0,0-.34,2.11,4.54,4.54,0,0,0,.33,1.74,3.86,3.86,0,0,0,1,1.38,4.38,4.38,0,0,0,1.53.9,6.17,6.17,0,0,0,2,.32,6.73,6.73,0,0,0,5.1-2.24,7.65,7.65,0,0,0,1.48-2.51,9.18,9.18,0,0,0,.54-3.18v-2.31Z"/><path class="cls-17" d="M216.5,470v12.34h12v2.77h-12V500h-3V467.23h16V470Z"/><path class="cls-17" d="M246.88,479.59a4.38,4.38,0,0,0-2.65-.75,4.54,4.54,0,0,0-2.06.45,5.11,5.11,0,0,0-1.56,1.2,7.14,7.14,0,0,0-1.14,1.75,12,12,0,0,0-.76,2.06,15.29,15.29,0,0,0-.41,2.17,18,18,0,0,0-.13,2.08V500h-2.9V476.59h2.9v5h.09a10.29,10.29,0,0,1,1-2.29,7.15,7.15,0,0,1,1.45-1.71,6.08,6.08,0,0,1,1.79-1.06,5.76,5.76,0,0,1,2-.36,7.88,7.88,0,0,1,1.27.09,5.24,5.24,0,0,1,1,.28Z"/><path class="cls-17" d="M251.9,488.81a13.19,13.19,0,0,0,.57,3.86,8.21,8.21,0,0,0,1.58,2.9,6.71,6.71,0,0,0,2.5,1.81,8.39,8.39,0,0,0,3.32.63,11.89,11.89,0,0,0,7.47-2.76v2.88a13.61,13.61,0,0,1-8.13,2.4,10.73,10.73,0,0,1-4.27-.82,8.82,8.82,0,0,1-3.27-2.39,10.92,10.92,0,0,1-2.08-3.85,17.12,17.12,0,0,1-.73-5.21,14.38,14.38,0,0,1,.8-4.86,12,12,0,0,1,2.22-3.87,10.27,10.27,0,0,1,3.36-2.56,9.77,9.77,0,0,1,4.25-.92,9.59,9.59,0,0,1,4,.79,7.89,7.89,0,0,1,2.91,2.25,10.2,10.2,0,0,1,1.79,3.56,16.62,16.62,0,0,1,.62,4.71v1.46Zm13.89-2.56a8.9,8.9,0,0,0-1.74-5.66,5.69,5.69,0,0,0-4.64-2,7.06,7.06,0,0,0-2.75.53,6.53,6.53,0,0,0-2.23,1.52,8.23,8.23,0,0,0-1.59,2.42,12.15,12.15,0,0,0-.88,3.21Z"/><path class="cls-17" d="M273.22,495.78a9.46,9.46,0,0,0,1.44.94,12.64,12.64,0,0,0,1.6.71,10.37,10.37,0,0,0,1.65.44,8.92,8.92,0,0,0,1.59.15q5.21,0,5.21-3.9a3.09,3.09,0,0,0-.36-1.54,4,4,0,0,0-1.05-1.19,8.87,8.87,0,0,0-1.65-1c-.64-.3-1.36-.63-2.17-1a21.86,21.86,0,0,1-2.79-1.35,8.54,8.54,0,0,1-1.92-1.5,5.35,5.35,0,0,1-1.12-1.78,6.22,6.22,0,0,1-.37-2.2,5.62,5.62,0,0,1,.67-2.77,6.51,6.51,0,0,1,1.81-2.05,8.53,8.53,0,0,1,2.64-1.29,10.81,10.81,0,0,1,3.14-.45,11.62,11.62,0,0,1,5.3,1.15v3.08a10.29,10.29,0,0,0-5.67-1.69,6.85,6.85,0,0,0-2,.27,4.69,4.69,0,0,0-1.54.78,3.65,3.65,0,0,0-1,1.2,3.42,3.42,0,0,0-.35,1.54,3.88,3.88,0,0,0,.27,1.52,3.35,3.35,0,0,0,.86,1.18,7.25,7.25,0,0,0,1.51,1c.62.32,1.37.66,2.25,1a28.57,28.57,0,0,1,2.93,1.36,9.06,9.06,0,0,1,2,1.46,5.1,5.1,0,0,1,1.19,1.76,6,6,0,0,1,.39,2.25,5.88,5.88,0,0,1-.65,2.81,6.08,6.08,0,0,1-1.8,2.08,8.44,8.44,0,0,1-2.71,1.28,12.49,12.49,0,0,1-3.38.43,11.16,11.16,0,0,1-6-1.49Z"/><path class="cls-17" d="M307,500v-4.16h-.09a8.55,8.55,0,0,1-3.12,3.47,8.24,8.24,0,0,1-4.46,1.23,9.13,9.13,0,0,1-3.05-.48,6.54,6.54,0,0,1-2.31-1.36,6,6,0,0,1-1.46-2.11,7,7,0,0,1-.51-2.72,6.67,6.67,0,0,1,2-5.06,10.58,10.58,0,0,1,5.94-2.46l7.1-1q0-6.75-5.23-6.74a11.44,11.44,0,0,0-7.58,3v-3.2a9.37,9.37,0,0,1,1.66-.95,16.1,16.1,0,0,1,2-.73,15.69,15.69,0,0,1,2.11-.48A13.26,13.26,0,0,1,302,476a7.58,7.58,0,0,1,5.91,2.19q2,2.19,2,6.53V500Zm-6-11.35a18.19,18.19,0,0,0-2.69.57,5.47,5.47,0,0,0-1.85.92,3.45,3.45,0,0,0-1.07,1.44,5.68,5.68,0,0,0-.34,2.11,4.51,4.51,0,0,0,.33,1.74,3.86,3.86,0,0,0,1,1.38,4.38,4.38,0,0,0,1.53.9,6.19,6.19,0,0,0,2,.32,6.72,6.72,0,0,0,5.1-2.24,7.64,7.64,0,0,0,1.49-2.51,9.16,9.16,0,0,0,.54-3.18v-2.31Z"/><path class="cls-17" d="M351.49,500l-3.61-9.68h-14L330.32,500h-3.38l12.47-32.75h3.06L354.87,500Zm-10-27c-.11-.29-.22-.62-.33-1a9,9,0,0,1-.29-1.3h-.09a12.54,12.54,0,0,1-.31,1.3c-.11.38-.22.72-.33,1l-5.3,14.57h12Z"/><path class="cls-17" d="M375.34,500V486.51q0-7.92-5.75-7.92a6.65,6.65,0,0,0-2.84.61,6.74,6.74,0,0,0-2.25,1.68,7.88,7.88,0,0,0-1.49,2.55,9.24,9.24,0,0,0-.54,3.18V500h-2.92V476.59h2.92v4.07h.09A8.45,8.45,0,0,1,370.4,476a7.06,7.06,0,0,1,5.85,2.49q2,2.48,2,7.19V500Z"/><path class="cls-17" d="M401.7,500v-4.11h-.09a8.28,8.28,0,0,1-3.32,3.44,9.75,9.75,0,0,1-4.9,1.22,9.57,9.57,0,0,1-4-.81,8.6,8.6,0,0,1-3.07-2.34,10.88,10.88,0,0,1-2-3.7,16,16,0,0,1-.7-4.91,16.66,16.66,0,0,1,.76-5.17,12,12,0,0,1,2.18-4A9.7,9.7,0,0,1,390,477a10.25,10.25,0,0,1,4.4-.92q5,0,7.24,4h.09V465.36h2.92V500Zm0-14.11a7.62,7.62,0,0,0-.53-2.86,7,7,0,0,0-1.46-2.31,6.81,6.81,0,0,0-2.25-1.56,7.2,7.2,0,0,0-2.89-.57,7.42,7.42,0,0,0-3.19.68,6.94,6.94,0,0,0-2.5,2,9.52,9.52,0,0,0-1.62,3.14,15.43,15.43,0,0,0-.06,8.18,8.56,8.56,0,0,0,1.5,3,6.55,6.55,0,0,0,2.32,1.85,7,7,0,0,0,3,.64,7.81,7.81,0,0,0,3.21-.64,7,7,0,0,0,2.42-1.76,8,8,0,0,0,1.53-2.62,9.54,9.54,0,0,0,.54-3.22Z"/><path class="cls-17" d="M425.63,500v-4.16h-.09a8.57,8.57,0,0,1-3.12,3.47,8.23,8.23,0,0,1-4.47,1.23,9.17,9.17,0,0,1-3-.48,6.51,6.51,0,0,1-2.31-1.36,6,6,0,0,1-1.46-2.11,7,7,0,0,1-.52-2.72,6.68,6.68,0,0,1,2-5.06,10.56,10.56,0,0,1,5.94-2.46l7.1-1q0-6.75-5.23-6.74a11.42,11.42,0,0,0-7.58,3v-3.2a9.19,9.19,0,0,1,1.65-.95,15.6,15.6,0,0,1,1.95-.73,15.77,15.77,0,0,1,2.12-.48,13.3,13.3,0,0,1,2.11-.17,7.59,7.59,0,0,1,5.91,2.19c1.33,1.46,2,3.64,2,6.53V500Zm-6-11.35a18.11,18.11,0,0,0-2.7.57,5.47,5.47,0,0,0-1.85.92,3.39,3.39,0,0,0-1.07,1.44,5.66,5.66,0,0,0-.34,2.11,4.59,4.59,0,0,0,.33,1.74,3.86,3.86,0,0,0,1,1.38,4.32,4.32,0,0,0,1.53.9,6.16,6.16,0,0,0,2,.32,6.82,6.82,0,0,0,2.85-.59,6.92,6.92,0,0,0,2.25-1.64,7.63,7.63,0,0,0,1.48-2.51,9.27,9.27,0,0,0,.54-3.18v-2.31Z"/><path class="cls-17" d="M435.6,500V465.36h2.92V500Z"/><path class="cls-17" d="M461.35,500v-4h-.09a7.82,7.82,0,0,1-7.38,4.52q-8.34,0-8.34-10.19V476.59h2.92v13.2q0,4.2,1.5,6.21a5.34,5.34,0,0,0,4.58,2,6.28,6.28,0,0,0,4.9-2.22,7.71,7.71,0,0,0,1.4-2.55,10.24,10.24,0,0,0,.5-3.29V476.59h2.93V500Z"/><path class="cls-17" d="M473.53,497.43h14.42V500H469.08v-1l14.69-19.85H470.29v-2.56h18v.82Z"/><path class="cls-17" d="M506.72,500v-4.16h-.09a8.58,8.58,0,0,1-3.12,3.47,8.25,8.25,0,0,1-4.47,1.23,9.15,9.15,0,0,1-3.05-.48,6.51,6.51,0,0,1-2.3-1.36,6,6,0,0,1-1.46-2.11,7,7,0,0,1-.51-2.72,6.67,6.67,0,0,1,2-5.06,10.54,10.54,0,0,1,5.94-2.46l7.1-1q0-6.75-5.23-6.74a11.43,11.43,0,0,0-7.58,3v-3.2a9.25,9.25,0,0,1,1.66-.95,15.61,15.61,0,0,1,4.07-1.21,13.28,13.28,0,0,1,2.11-.17,7.59,7.59,0,0,1,5.9,2.19q2,2.19,2,6.53V500Zm-6-11.35a18.15,18.15,0,0,0-2.7.57,5.52,5.52,0,0,0-1.85.92,3.47,3.47,0,0,0-1.07,1.44,5.76,5.76,0,0,0-.34,2.11,4.46,4.46,0,0,0,.34,1.74,3.86,3.86,0,0,0,1,1.38,4.35,4.35,0,0,0,1.53.9,6.15,6.15,0,0,0,2,.32,6.72,6.72,0,0,0,5.1-2.24,7.67,7.67,0,0,0,1.49-2.51,9.22,9.22,0,0,0,.53-3.18v-2.31Z"/><rect class="cls-18" y="523.39" width="581" height="1.62"/><rect class="cls-18" y="393.26" width="581" height="1.62"/></g></g></svg>
